<svg width="96" height="96" fill="none" xmlns="http://www.w3.org/2000/svg"><path d="M66.036 31.253c1.923-5.632 11.782-5.632 14.186 1.173l11.221-7.912c-2.959-3.678-8.876-8.72-19.396-9.453-16.832-1.173-21.641 14.784-18.034 26.047 1.977 6.175 9.878 9.67 16.615 12.65 5.554 2.456 10.316 4.562 10.316 7.53 0 5.398-2.885 7.745-10.1 7.745-7.213 0-11.06-7.979-11.06-7.979l-11.309 6.632C51.92 73.392 58.852 81 71.326 81c19.958 0 23.324-10.09 24.527-17.834 1.202-7.743-5.05-16.426-15.15-19.711-10.099-3.286-16.59-6.57-14.667-12.202zM27.327 61.152v-45.21H40.87V65.39c0 7.535-8.554 16.483-23.524 15.541C2.377 79.989 0 69.158 0 69.158l10.93-7.3s2.14 5.651 6.892 6.593c4.752.942 9.505-1.884 9.505-7.3z" fill="#FFFDF8"/></svg>