<svg width="96" height="96" fill="none" xmlns="http://www.w3.org/2000/svg"><path d="M58.398 1.019c-.225.033-.45.1-.668.2-1.836.91-3.923 3.614-4.323 4.148a.727.727 0 00-.067.1c-2.062 3.088-3.163 6.7-3.205 10.465-.025 2.82.526 5.616 1.644 8.311 2.604 6.25 8.013 11.424 14.448 13.844.217.075.426.15.801.284.034.017.351.117.401.125l.234.084c.334.108.676.217 1.01.283 1.694.343 3.347.535 4.9.585.266 0 .533.008.8.008 11.71 0 16.251-8.262 17.762-11.015.15-.267.259-.484.359-.618 0-.008 0-.008.008-.017a2.144 2.144 0 00-.567-2.97 2.136 2.136 0 00-2.963.567h-.009c-3.121 4.598-8.463 5.992-15.866 4.156a15.233 15.233 0 01-1.687-.543 20.435 20.435 0 01-2.053-.86 21.791 21.791 0 01-3.614-2.26c-6.51-5.05-9.056-15.556-5.25-21.622a2.136 2.136 0 00-2.095-3.255zm-18.93 4.256a2.092 2.092 0 00-1.377.484c-3.23 2.629-6.536 6.935-6.678 7.11a.558.558 0 01-.058.092c-5.843 8.503-6.285 20.603-1.118 30.826a38.456 38.456 0 002.704 4.581l.292.418c.826 1.21 1.753 2.578 2.938 3.646.409.468.851.918 1.285 1.352l.21.217.174.175c.443.426.893.86 1.36 1.277h.01c.033.05.083.084.124.125.526.468 1.06.91 1.77 1.47l.192.141c.55.442 1.11.86 1.686 1.268l.175.126c.2.133.4.258.601.4l.2.134.234.15c.426.284.843.542 1.436.884.384.234.793.468 1.06.601.117.067.242.134.534.292l.651.343c.033.016.184.083.217.1.426.217.868.425 1.31.625l.677.3c.442.193.893.376 1.444.585l.25.092c.017.017.225.092.242.1.4.142.81.284 1.218.417l.935.309c.468.159 1.01.342 1.603.442 2.913.484 5.742.735 8.422.735.317 0 .634-.009.943-.009 23.587-.517 29.722-20.553 29.78-20.754a2.144 2.144 0 00-1.135-2.537 2.139 2.139 0 00-2.679.735c-5.976 8.729-17.277 12.417-28.787 9.38a24.753 24.753 0 01-1.695-.493 5.7 5.7 0 01-.375-.133 19.44 19.44 0 01-1.16-.4l-.593-.226a26.311 26.311 0 01-1.102-.45l-.275-.126c-.51-.217-1.002-.459-1.444-.676l-1.219-.634c-.275-.134-.517-.284-.893-.51l-.209-.116-.208-.125a13.898 13.898 0 01-.902-.576l-.2-.125a2.992 2.992 0 01-.2-.142c-.25-.158-.493-.317-.727-.467a39.136 39.136 0 01-1.619-1.219l-.233-.192c-5.51-4.397-9.582-10.272-11.494-16.573-1.778-5.783-.459-13.352 3.53-20.245a2.125 2.125 0 00-.467-2.695 2.104 2.104 0 00-1.36-.509zm-23.513 6.409c-.509 0-1.026.184-1.435.55-4.082 3.664-7.136 8.412-7.47 8.955C-1.68 33.899.005 53.65 5.998 65.726c.117.25.242.492.367.734l.084.134c.108.242.233.492.275.542.067.159.167.334.209.384.1.209.2.392.384.71L8 69.405c.1.159.2.325.234.384.133.217.275.442.417.667l.334.535c.1.158.2.3.267.383a27.47 27.47 0 001.035 1.528c.017.025.034.041.05.058l.134.183c.3.434.61.852.885 1.194l1.218 1.544c.017.016.15.175.159.192l.175.2c.367.45.76.901 1.152 1.335.058.067.117.125.175.192.376.409.76.818 1.16 1.243l.384.368c.317.333.635.659.968.968 0 .008.159.158.159.158l.334.309c.4.384.818.768 1.135 1.035.017.025.317.283.342.3.392.35.785.684 1.186 1.01l2.044 1.619c.343.25.693.5 1.094.793.133.1.275.2.417.292.059.05.125.1.167.125l1.536 1.026c.56.367 1.118.71 1.803 1.118l.367.21c.426.25.86.5 1.269.717.242.133.484.25.692.359.293.158.61.333 1.094.567.042.025.384.192.425.209.485.242.977.467 1.595.742 0 .009.2.1.2.1a90.45 90.45 0 001.845.768 65.879 65.879 0 001.761.66l.309.125a79.353 79.353 0 002.203.709l.426.133c.517.16 1.035.326 1.594.434C44.718 94.626 48.599 95 52.272 95h.008c30.607 0 40.356-24.626 40.456-24.876a2.138 2.138 0 00-.968-2.629 2.152 2.152 0 00-2.738.576C81.176 78.41 66.36 82.249 49.4 78.35a22.71 22.71 0 01-1.235-.341l-.801-.242a45.557 45.557 0 01-1.611-.534c-.008 0-.25-.092-.25-.092-.468-.159-.935-.342-1.344-.5l-.468-.184a42.286 42.286 0 01-1.535-.651l-.293-.126c-.45-.208-.884-.409-1.318-.626a9.056 9.056 0 00-.41-.191c-.3-.15-.6-.31-.984-.518l-1.745-.934a5.987 5.987 0 00-.534-.318c-.526-.325-1.068-.65-1.602-.993-.126-.075-.234-.158-.443-.3a34.092 34.092 0 01-1.252-.843l-.208-.15c-.36-.25-.71-.517-1.002-.734-.184-.134-.367-.284-.668-.51-.267-.208-.534-.408-.784-.609l-.468-.383c-.392-.318-.76-.651-1.143-.977a1.093 1.093 0 00-.15-.125c-.426-.392-.86-.784-1.378-1.277l-1.51-1.502c-.368-.375-.735-.76-1.152-1.218a54.85 54.85 0 01-1.244-1.436l-.901-1.101a5.698 5.698 0 00-.368-.484c-.308-.417-.617-.826-.926-1.26-8.313-11.45-10.483-35.35-4.006-44.103a2.135 2.135 0 00-1.712-3.405z" fill="#FFFDF8"/></svg>