<svg width="96" height="96" fill="none" xmlns="http://www.w3.org/2000/svg"><path d="M53.514 48.431a5.87 5.87 0 01-5.873 5.868 5.87 5.87 0 01-5.874-5.868 5.87 5.87 0 015.874-5.867 5.87 5.87 0 015.873 5.867z" fill="#FFFDF8"/><path fill-rule="evenodd" clip-rule="evenodd" d="M18.51 26.428a61.75 61.75 0 00.888 4.665 61.13 61.13 0 00-4.567 1.587C5.27 36.451 0 41.73 0 47.545c0 5.813 5.269 11.093 14.832 14.866a62.065 62.065 0 005.363 1.826c-.05.247-.1.492-.148.736A60.98 60.98 0 0019.3 69.8c-1.148 10.205 1.05 17.33 6.19 20.055 5.142 2.726 12.28.552 20.1-6.117a60.696 60.696 0 002.895-2.645 60.413 60.413 0 003.193 2.725c8.05 6.388 15.262 8.306 20.302 5.4 5.04-2.908 6.983-10.106 5.473-20.265a61.897 61.897 0 00-.918-4.794l-.03-.13.049-.016a61.284 61.284 0 004.614-1.601C90.733 58.638 96 53.359 96 47.545S90.733 36.45 81.168 32.68a62.201 62.201 0 00-5.392-1.834 61.142 61.142 0 00.912-5.644c1.148-10.208-1.05-17.33-6.192-20.056-5.14-2.725-12.278-.553-20.096 6.119a61.008 61.008 0 00-3.11 2.854 59.98 59.98 0 00-3.006-2.556C36.231 5.175 29.021 3.258 23.98 6.165c-5.04 2.907-6.983 10.103-5.47 20.263zM41.456 15.12a55.551 55.551 0 012.696 2.287c-.148.165-.296.33-.443.497-2.62 2.97-5.18 6.311-7.612 9.937-4.312.446-8.432 1.135-12.258 2.049l-.05.012a56.076 56.076 0 01-.783-4.141c-.612-4.12-.6-7.75.037-10.498.588-2.537 1.667-4.275 3.21-5.165 1.544-.89 3.59-.955 6.084-.195 2.7.822 5.853 2.627 9.12 5.217zm13.049 65.142a55.797 55.797 0 01-2.87-2.445c.215-.237.429-.477.642-.72 2.599-2.94 5.134-6.25 7.549-9.84 4.32-.443 8.452-1.13 12.286-2.045l.03.134c.336 1.46.606 2.887.814 4.274.612 4.12.6 7.75-.038 10.498-.587 2.537-1.667 4.275-3.21 5.165-1.544.89-3.59.956-6.084.195-2.7-.822-5.853-2.627-9.12-5.216zM75.387 59.62l-.058.018c-1.156-3.87-2.676-7.886-4.514-11.948l-.219-.479.217-.524c1.595-3.883 2.908-7.72 3.905-11.42.224.067.447.134.669.203 1.433.44 2.806.92 4.112 1.434 3.878 1.53 7.019 3.355 9.082 5.281 1.906 1.777 2.873 3.58 2.873 5.36 0 1.78-.967 3.583-2.873 5.36-2.063 1.926-5.204 3.75-9.082 5.281a56.32 56.32 0 01-4.112 1.434zm-7.196-6.532l-.112-.273a118.275 118.275 0 01-2.129 4.204 117.609 117.609 0 01-2.983 5.286 86.227 86.227 0 007.975-1.48 86.302 86.302 0 00-2.751-7.737zm-.193-11.701a85.59 85.59 0 01-.115.313 117.48 117.48 0 00-2.298-4.164 117.471 117.471 0 00-2.82-4.633l-.103-.16.122.016c2.616.36 5.137.815 7.537 1.362a87.102 87.102 0 01-2.323 7.266zM56.89 32.27l-.105-.153A112.07 112.07 0 0048 31.779a113.044 113.044 0 00-9.3.378l-.16.25a111.724 111.724 0 00-4.487 7.701 112.873 112.873 0 00-3.781 7.819 111.86 111.86 0 004.04 7.646 112.875 112.875 0 004.65 7.38l.125.01c2.901.23 5.883.347 8.913.347a111.98 111.98 0 009.228-.373l.22-.345a112.773 112.773 0 004.486-7.701 112.124 112.124 0 003.68-7.594 113.35 113.35 0 00-3.967-7.49 111.779 111.779 0 00-4.759-7.536zm2.528-4.479l-.132-.013c-2.595-3.6-5.313-6.904-8.08-9.82a78.514 78.514 0 00-.651-.679 56.19 56.19 0 012.797-2.562c3.172-2.704 6.258-4.62 8.928-5.538 2.464-.849 4.512-.857 6.086-.022 1.575.835 2.715 2.533 3.393 5.047.735 2.724.877 6.35.412 10.49a56.144 56.144 0 01-.8 5.01c-3.745-.855-7.762-1.498-11.953-1.913zM47.98 21.157a72.401 72.401 0 00-.563-.588l-.368.415a85.985 85.985 0 00-5.102 6.407l.625-.03a117.633 117.633 0 0110.718-.006 85.958 85.958 0 00-5.31-6.198zm-22.805 27.16l.122-.297-.15-.33c-1.858-4.103-3.39-8.166-4.553-12.073l-.038-.129a56.284 56.284 0 00-4.055 1.416c-3.878 1.531-7.02 3.356-9.082 5.282-1.906 1.776-2.873 3.58-2.873 5.36 0 1.78.967 3.583 2.873 5.36 2.063 1.926 5.204 3.75 9.082 5.281a56.292 56.292 0 004.747 1.626c1.002-3.722 2.32-7.585 3.927-11.496zm2.596-6.023l.04.1a117.531 117.531 0 015.152-9.599 86 86 0 00-7.965 1.486l-.057.013.039.13a86.1 86.1 0 002.79 7.87zm2.604 15.55a117.395 117.395 0 01-2.363-4.292l-.023.063a86.95 86.95 0 00-2.345 7.347 87.68 87.68 0 007.449 1.353 117.457 117.457 0 01-2.718-4.47zM24.6 65.38c3.714.85 7.696 1.49 11.852 1.907l.114.16c2.628 3.66 5.383 7.015 8.189 9.974.158.167.317.333.476.498a55.7 55.7 0 01-2.595 2.365c-3.171 2.704-6.258 4.62-8.928 5.538-2.464.849-4.511.857-6.086.022-1.574-.835-2.715-2.533-3.393-5.048-.735-2.723-.877-6.35-.412-10.49a56.197 56.197 0 01.783-4.926zm17.954 2.494l-.117-.15.136.006c1.788.082 3.601.123 5.428.123a117.696 117.696 0 005.973-.15 85.863 85.863 0 01-5.592 6.94 86.193 86.193 0 01-5.827-6.77z" fill="#FFFDF8"/></svg>