<svg width="243" height="307" fill="none" xmlns="http://www.w3.org/2000/svg"><path d="M196.23 50.23s13.987-22.208-10.474-30.925c0 0 27.256.295 32.845-16.55 0 0-5.961 19.295 12.154 29.852 0 0-18.859-5.657-34.525 17.623zm-26.063 228.491s22.756-36.13-17.04-50.312c0 0 44.343.479 53.437-26.927 0 0-9.699 31.392 19.773 48.568 0 0-30.682-9.204-56.17 28.671zM24.258 304.656s5.837-20.665-16.505-23.635c0 0 22.491-4.436 22.79-19.249 0 0 .02 16.892 17.613 22.465 0 0-16.954-1.416-23.898 20.419z" fill="#fff"/></svg>