<svg width="243" height="307" viewBox="0 0 243 307" fill="none" xmlns="http://www.w3.org/2000/svg">
<path d="M196.23 50.2299C196.23 50.2299 210.217 28.0224 185.756 19.3054C185.756 19.3054 213.012 19.6 218.601 2.75505C218.601 2.75505 212.64 22.05 230.755 32.6071C230.755 32.6071 211.896 26.9499 196.23 50.2299Z" fill="white"/>
<path d="M170.167 278.721C170.167 278.721 192.923 242.591 153.127 228.409C153.127 228.409 197.47 228.888 206.564 201.482C206.564 201.482 196.865 232.874 226.337 250.05C226.337 250.05 195.655 240.846 170.167 278.721Z" fill="white"/>
<path d="M24.2575 304.656C24.2575 304.656 30.0948 283.991 7.75316 281.021C7.75316 281.021 30.2444 276.585 30.5437 261.772C30.5437 261.772 30.5638 278.664 48.1557 284.237C48.1557 284.237 31.2024 282.821 24.2575 304.656Z" fill="white"/>
</svg>
