<svg width="168" height="17" fill="none" xmlns="http://www.w3.org/2000/svg"><path d="M14.703 10.811v5.196H11.94v-2.72H2.846v2.72H.084l.019-5.196h.515c.774-.025 1.32-.6 1.639-1.726.32-1.125.515-2.732.59-4.82l.145-4.11h9.905V10.81h1.805zM5.479 4.546c-.061 1.563-.19 2.876-.387 3.94-.196 1.05-.497 1.825-.902 2.325h5.763V2.632H5.534L5.48 4.546zm74.74 3.451H78.34v5.29h-2.927v-5.29h-1.915l-2.89 5.29h-3.443l3.866-6.865L67.404.156h3.149l2.89 5.309h1.97V.156h2.927v5.309h1.915l2.91-5.309h3.147l-3.608 6.266 3.848 6.865h-3.443l-2.89-5.29zm65.445.282c0 .037-.018.3-.055.788h-7.494c.135.625.455 1.119.958 1.482.503.362 1.129.543 1.878.543.515 0 .969-.075 1.362-.225a3.41 3.41 0 001.123-.75l1.528 1.688c-.932 1.088-2.295 1.632-4.087 1.632-1.117 0-2.105-.218-2.964-.656-.859-.45-1.522-1.07-1.988-1.857-.467-.788-.7-1.682-.7-2.683 0-.988.227-1.876.681-2.664a4.883 4.883 0 011.896-1.857c.811-.45 1.713-.675 2.707-.675.97 0 1.847.213 2.633.638a4.538 4.538 0 011.841 1.838c.454.788.681 1.707.681 2.758zm-5.137-3.02c-.65 0-1.196.187-1.638.562-.442.376-.712.888-.81 1.539h4.879c-.099-.638-.369-1.145-.811-1.52-.441-.388-.981-.581-1.62-.581z" fill="#8FA9FF"/><path d="M20.337 3.045c1.535 0 2.713.375 3.535 1.125.823.738 1.234 1.858 1.234 3.358v5.76h-2.688V12.03c-.54.938-1.547 1.407-3.02 1.407-.76 0-1.423-.131-1.988-.394-.552-.262-.976-.625-1.27-1.088a2.871 2.871 0 01-.442-1.575c0-.938.343-1.676 1.03-2.214.7-.538 1.774-.807 3.223-.807h2.283c0-.637-.19-1.125-.571-1.463-.38-.35-.951-.525-1.712-.525-.528 0-1.05.088-1.565.263a3.967 3.967 0 00-1.289.675l-1.031-2.045c.54-.387 1.184-.688 1.933-.9a8.649 8.649 0 012.338-.32zm-.22 8.422c.49 0 .926-.112 1.306-.337.381-.238.651-.582.81-1.032V9.066h-1.97c-1.178 0-1.767.394-1.767 1.182 0 .375.141.676.424.9.294.213.693.32 1.196.32zm68.057-8.272h2.853v6.003l4.824-6.003h2.633v10.092H95.63V7.284l-4.805 6.003h-2.651V3.195zm67.258 4.821c1.166.4 1.749 1.2 1.749 2.401 0 .913-.337 1.62-1.012 2.12s-1.682.75-3.02.75h-5.284V3.195h5.063c1.24 0 2.21.231 2.909.694.7.45 1.05 1.088 1.05 1.913 0 .5-.129.945-.387 1.332-.245.375-.601.67-1.068.882zm-4.934-.675h2.173c1.006 0 1.509-.363 1.509-1.088 0-.713-.503-1.07-1.509-1.07h-2.173v2.158zm2.412 3.958c1.056 0 1.583-.37 1.583-1.107 0-.388-.122-.67-.368-.844-.245-.188-.632-.282-1.16-.282h-2.467V11.3h2.412z" fill="#FDAD48"/><path d="M33.437 3.045c.92 0 1.755.219 2.504.656a4.509 4.509 0 011.786 1.82c.43.775.644 1.682.644 2.72 0 1.038-.215 1.951-.644 2.739a4.669 4.669 0 01-1.786 1.82c-.749.425-1.583.637-2.504.637-1.264 0-2.258-.406-2.982-1.22v4.71h-2.872V3.194h2.743v1.163c.712-.875 1.749-1.313 3.111-1.313zm-.497 7.991c.736 0 1.338-.25 1.804-.75.48-.513.718-1.195.718-2.045 0-.85-.239-1.526-.718-2.026-.466-.513-1.068-.769-1.804-.769s-1.344.256-1.823.77c-.466.5-.7 1.175-.7 2.025 0 .85.234 1.532.7 2.045.48.5 1.087.75 1.823.75zm74.528 2.251l-2.173-3.095-2.246 3.095h-3.13l3.811-5.083-3.682-5.009h3.222l2.099 2.945 2.154-2.945h3.056l-3.682 4.934 3.829 5.158h-3.258zm55.698-10.242c1.534 0 2.713.375 3.535 1.125.822.738 1.234 1.858 1.234 3.358v5.76h-2.688V12.03c-.54.938-1.547 1.407-3.02 1.407-.761 0-1.424-.131-1.988-.394-.552-.262-.976-.625-1.271-1.088a2.875 2.875 0 01-.441-1.575c0-.938.343-1.676 1.031-2.214.699-.538 1.773-.807 3.222-.807h2.283c0-.637-.191-1.125-.571-1.463-.381-.35-.951-.525-1.712-.525-.528 0-1.05.088-1.565.263a3.962 3.962 0 00-1.289.675l-1.031-2.045c.54-.387 1.184-.688 1.933-.9a8.647 8.647 0 012.338-.32zm-.221 8.422c.491 0 .927-.112 1.307-.337a1.94 1.94 0 00.811-1.032V9.066h-1.97c-1.179 0-1.768.394-1.768 1.182 0 .375.141.676.424.9.294.213.693.32 1.196.32z" fill="#F5B9D3"/><path d="M45.742 6.421c1.289.013 2.277.313 2.964.9.687.576 1.031 1.395 1.031 2.458 0 1.113-.387 1.982-1.16 2.608-.76.612-1.835.919-3.222.919l-4.97-.019V3.195h2.853v3.226h2.504zm-.645 4.803c.553.012.976-.107 1.27-.357.295-.25.443-.625.443-1.125 0-.488-.148-.844-.442-1.07-.282-.225-.706-.343-1.27-.356l-1.86-.019v2.927h1.86zm70.891-8.18c1.534 0 2.713.376 3.535 1.126.822.738 1.234 1.858 1.234 3.358v5.76h-2.688V12.03c-.541.938-1.547 1.407-3.02 1.407-.761 0-1.424-.131-1.988-.394-.553-.262-.976-.625-1.271-1.088a2.875 2.875 0 01-.441-1.575c0-.938.343-1.676 1.031-2.214.699-.538 1.773-.807 3.221-.807h2.283c0-.637-.19-1.125-.57-1.463-.381-.35-.952-.525-1.713-.525-.527 0-1.049.088-1.564.263a3.962 3.962 0 00-1.289.675l-1.031-2.045c.54-.387 1.184-.688 1.933-.9a8.647 8.647 0 012.338-.32zm-.221 8.423c.491 0 .927-.112 1.307-.337.381-.238.651-.582.81-1.032V9.066h-1.97c-1.178 0-1.767.394-1.767 1.182 0 .375.141.676.423.9.295.213.694.32 1.197.32z" fill="#ACB0D5"/><path d="M60.332 3.195v10.092h-2.56v-2.889h-2.117l-1.878 2.89h-3.056l2.265-3.302c-.688-.276-1.215-.67-1.584-1.182-.355-.525-.534-1.157-.534-1.895 0-1.188.418-2.1 1.252-2.739.847-.65 2.007-.975 3.48-.975h4.732zm-4.677 2.382c-.613 0-1.08.113-1.399.338-.307.225-.46.588-.46 1.088 0 .5.147.87.442 1.107.306.225.767.337 1.38.337h2.155v-2.87h-2.118zm73.433-2.532c.92 0 1.755.219 2.504.656a4.503 4.503 0 011.785 1.82c.43.775.645 1.682.645 2.72 0 1.038-.215 1.951-.645 2.739a4.663 4.663 0 01-1.785 1.82c-.749.425-1.584.637-2.504.637-1.265 0-2.259-.406-2.983-1.22v4.71h-2.872V3.194h2.743v1.163c.712-.875 1.749-1.313 3.112-1.313zm-.497 7.991c.736 0 1.337-.25 1.804-.75.478-.513.718-1.195.718-2.045 0-.85-.24-1.526-.718-2.026-.467-.513-1.068-.769-1.804-.769-.737 0-1.344.256-1.823.77-.467.5-.7 1.175-.7 2.025 0 .85.233 1.532.7 2.045.479.5 1.086.75 1.823.75z" fill="#48A9AB"/></svg>