<svg version="1.0" xmlns="http://www.w3.org/2000/svg" width="346.667" height="346.667" viewBox="0 0 260 260"><path d="M16.3 18.4c-5.9 1.9-9.9 5-13 10.4L.5 33.5v148l2.2 4.2c2.7 5.1 8.2 9.6 13.2 11.2 2.6.7 16.5 1.1 43 1.1H98v34H72.6c-14 0-26.2.3-27.1.6-.8.4-2.3 2-3.1 3.6-1.9 3.7-.5 8 3.2 9.7 1.8.8 25.9 1.1 85.5 1.1h83l2.4-2.5c3.2-3.1 3.2-6.9 0-10l-2.4-2.5H162v-34h40.3c36.7 0 40.5-.2 44.2-1.9 5.1-2.3 11.1-8.9 12.4-13.8.7-2.5 1.1-27.9 1.1-75.3V35.5l-2.4-5c-2.8-6-5.6-8.7-11.6-11.4-4.4-2-5.9-2.1-115-2-87.8 0-111.4.3-114.7 1.3zm226.4 15.9c1.7 1.7 1.8 6.2 2.1 72.8l.2 71-2.4 2.4-2.5 2.5h-221l-2-2.6C15 177.8 15 177 15 107.3V36.9l2.5-2.5 2.4-2.4 110.5.2c104.6.3 110.6.4 112.3 2.1z"/><path d="M35.1 56.6c-2.7 3.4-2.6 5.7.2 8.8C40 70.7 48 67.9 48 61c0-6.7-8.8-9.6-12.9-4.4zm.2 32c-2 2-2.4 3.1-1.9 5.7.7 3.8 3.9 6.7 7.3 6.7 3.2 0 7.3-4.2 7.3-7.5 0-1.4-1.1-3.7-2.5-5-3.1-3.2-6.9-3.2-10.2.1zm-.2 33c-1.2 1.5-2.1 3.4-2.1 4.4 0 1 .9 2.9 2.1 4.4 4.1 5.2 12.9 2 12.9-4.7 0-6.4-8.9-9.2-12.9-4.1z"/></svg>