<?xml version="1.0" standalone="no"?>
<!DOCTYPE svg PUBLIC "-//W3C//DTD SVG 20010904//EN"
 "http://www.w3.org/TR/2001/REC-SVG-20010904/DTD/svg10.dtd">
<svg version="1.0" xmlns="http://www.w3.org/2000/svg"
 width="260.000000pt" height="260.000000pt" viewBox="0 0 260.000000 260.000000"
 preserveAspectRatio="xMidYMid meet">
<metadata>
Created by potrace 1.14, written by Peter Selinger 2001-2017
</metadata>
<g transform="translate(0.000000,260.000000) scale(0.100000,-0.100000)"
fill="#000000" stroke="none">
<path d="M163 2416 c-59 -19 -99 -50 -130 -104 l-28 -47 0 -740 0 -740 22 -42
c27 -51 82 -96 132 -112 26 -7 165 -11 430 -11 l391 0 0 -170 0 -170 -254 0
c-140 0 -262 -3 -271 -6 -8 -4 -23 -20 -31 -36 -19 -37 -5 -80 32 -97 18 -8
259 -11 855 -11 l830 0 24 25 c32 31 32 69 0 100 l-24 25 -261 0 -260 0 0 170
0 170 403 0 c367 0 405 2 442 19 51 23 111 89 124 138 7 25 11 279 11 753 l0
715 -24 50 c-28 60 -56 87 -116 114 -44 20 -59 21 -1150 20 -878 0 -1114 -3
-1147 -13z m2264 -159 c17 -17 18 -62 21 -728 l2 -710 -24 -24 -25 -25 -1105
0 -1105 0 -20 26 c-21 26 -21 34 -21 731 l0 704 25 25 24 24 1105 -2 c1046 -3
1106 -4 1123 -21z"/>
<path d="M351 2034 c-27 -34 -26 -57 2 -88 47 -53 127 -25 127 44 0 67 -88 96
-129 44z"/>
<path d="M353 1714 c-20 -20 -24 -31 -19 -57 7 -38 39 -67 73 -67 32 0 73 42
73 75 0 14 -11 37 -25 50 -31 32 -69 32 -102 -1z"/>
<path d="M351 1384 c-12 -15 -21 -34 -21 -44 0 -10 9 -29 21 -44 41 -52 129
-20 129 47 0 64 -89 92 -129 41z"/>
</g>
</svg>
