<svg xmlns="http://www.w3.org/2000/svg" xmlns:xlink="http://www.w3.org/1999/xlink"><symbol id="icon-mail" viewBox="0 0 49 48">
<g clip-path="url(#clip0)">
<path d="M44.5 6L4.50003 6C2.29391 6 0.5 7.79391 0.5 10L0.5 38.0001C0.5 40.2061 2.29391 42 4.50003 42L44.5001 42C46.7061 42 48.5 40.2061 48.5 38L48.5 10C48.5 7.79391 46.7061 6 44.5 6ZM4.50003 7.99997L44.5001 7.99997C44.6474 7.99997 44.7773 8.05369 44.9156 8.08406C41.4525 11.2535 29.9697 21.7583 25.9513 25.3789C25.6368 25.6621 25.13 26 24.5001 26C23.8702 26 23.3634 25.6621 23.0479 25.3779C19.0299 21.758 7.54634 11.2525 4.08388 8.08425C4.22244 8.05388 4.35256 7.99997 4.50003 7.99997ZM2.49997 38L2.49997 10C2.49997 9.80409 2.55903 9.62634 2.61191 9.44728C5.26241 11.8732 13.2747 19.2029 18.4699 23.9272C13.2915 28.3754 5.27722 35.9737 2.60562 38.5212C2.55847 38.3512 2.49997 38.1848 2.49997 38ZM44.5 40L4.50003 40C4.34028 40 4.19825 39.9443 4.04909 39.9087C6.80975 37.277 14.8751 29.635 19.9624 25.2829C20.6256 25.8845 21.2314 26.433 21.709 26.8633C22.5332 27.6075 23.498 28 24.5 28C25.502 28 26.4668 27.6074 27.29 26.8643C27.7678 26.4338 28.374 25.8847 29.0376 25.2829C34.1252 29.6346 42.1894 37.2759 44.9509 39.9087C44.8018 39.9443 44.6599 40 44.5 40ZM46.5 38C46.5 38.1847 46.4415 38.3512 46.3945 38.5212C43.7218 35.9723 35.7085 28.3749 30.5302 23.9273C35.7256 19.203 43.7367 11.8739 46.3881 9.44709C46.441 9.62616 46.5 9.804 46.5 9.99994L46.5 38Z" fill="currentColor"/>
</g></symbol><symbol id="icon-telegram" viewBox="0 0 49 48">
<path d="M48.1428 0.500156C47.7275 0.00518074 47.0722 -0.127544 46.5293 0.124933L1.34222 21.1813C0.841598 21.4148 0.512538 21.9368 0.50035 22.5196C0.488163 23.1014 0.794723 23.6382 1.28597 23.8957L12.0756 29.544L14.7643 46.7145C14.8515 47.3661 15.3324 47.89 15.9587 47.9848C16.4087 48.0537 16.8558 47.885 17.1652 47.5457L25.6833 38.4785L37.8388 47.7214C38.2288 48.0168 38.7313 48.0816 39.1738 47.895C39.6172 47.7084 39.9416 47.2943 40.0353 46.7963L48.4728 1.78949C48.5562 1.34341 48.4484 0.865399 48.1428 0.500156ZM13.1893 26.7907L5.24406 22.6313L36.6332 8.00461L13.1893 26.7907ZM17.5899 31.2405L16.2821 38.2011L14.8712 29.1897L32.1182 15.3694L17.9733 30.4771C17.7746 30.6886 17.6424 30.9641 17.5899 31.2405ZM18.4458 41.9483L19.9214 34.0976L23.363 36.7142L18.4458 41.9483ZM37.7029 43.9382L21.1346 31.3413L44.8034 6.06264L37.7029 43.9382Z" fill="currentColor"/>
</symbol></svg>