<svg xmlns="http://www.w3.org/2000/svg" xmlns:xlink="http://www.w3.org/1999/xlink"><symbol id="icon-email" viewBox="0 0 48 48">
<path d="M45 7.5H3C1.503 7.5 0.314996 8.616 0.0899963 10.053L24 25.806L47.91 10.053C47.685 8.616 46.497 7.5 45 7.5Z" fill="currentColor"/>
<path d="M0 34.476V13.584L16.182 24.246L0 34.476Z" fill="currentColor"/>
<path d="M48 34.476L31.818 24.246L48 13.584V34.476Z" fill="currentColor"/>
<path d="M24.825 28.854L29.07 26.058L47.904 37.968C47.673 39.393 46.491 40.5 45 40.5H2.99999C1.50899 40.5 0.326993 39.393 0.095993 37.968L18.93 26.055L23.175 28.854C23.427 29.019 23.712 29.1 24 29.1C24.288 29.1 24.573 29.019 24.825 28.854Z" fill="currentColor"/>
</symbol><symbol id="icon-github" viewBox="0 0 48 48">
<path d="M24 1C10.74 1 0 11.56 0 24.584C0 35.006 6.876 43.844 16.41 46.96C17.61 47.182 18.05 46.452 18.05 45.826C18.05 45.266 18.03 43.782 18.02 41.816C11.344 43.238 9.936 38.652 9.936 38.652C8.844 35.93 7.266 35.202 7.266 35.202C5.092 33.74 7.434 33.77 7.434 33.77C9.844 33.934 11.11 36.2 11.11 36.2C13.25 39.806 16.728 38.764 18.1 38.162C18.316 36.636 18.934 35.598 19.62 35.008C14.29 34.418 8.688 32.39 8.688 23.354C8.688 20.78 9.618 18.676 11.158 17.026C10.888 16.43 10.078 14.032 11.368 10.784C11.368 10.784 13.378 10.152 17.968 13.202C19.888 12.678 21.928 12.418 23.968 12.406C26.008 12.418 28.048 12.678 29.968 13.202C34.528 10.152 36.538 10.784 36.538 10.784C37.828 14.032 37.018 16.43 36.778 17.026C38.308 18.676 39.238 20.78 39.238 23.354C39.238 32.414 33.628 34.408 28.288 34.988C29.128 35.696 29.908 37.142 29.908 39.352C29.908 42.508 29.878 45.044 29.878 45.81C29.878 46.428 30.298 47.166 31.528 46.93C41.13 43.834 48 34.99 48 24.584C48 11.56 37.254 1 24 1Z" fill="currentColor"/>
</symbol><symbol id="icon-telegram" viewBox="0 0 48 48">
<path d="M18.8339 30.3618L18.0399 41.5298C19.1759 41.5298 19.6679 41.0418 20.2579 40.4558L25.5839 35.3658L36.6199 43.4478C38.6439 44.5758 40.0699 43.9818 40.6159 41.5858L47.8599 7.64183L47.8619 7.63983C48.5039 4.64783 46.7799 3.47783 44.8079 4.21183L2.22787 20.5138C-0.678133 21.6418 -0.634133 23.2618 1.73387 23.9958L12.6199 27.3818L37.9059 11.5598C39.0959 10.7718 40.1779 11.2078 39.2879 11.9958L18.8339 30.3618Z" fill="currentColor"/>
</symbol></svg>