<svg width="48" height="48" fill="none" xmlns="http://www.w3.org/2000/svg"><path d="M24 1C10.74 1 0 11.56 0 24.584c0 10.422 6.876 19.26 16.41 22.376 1.2.222 1.64-.508 1.64-1.134 0-.56-.02-2.044-.03-4.01-6.676 1.422-8.084-3.164-8.084-3.164-1.092-2.722-2.67-3.45-2.67-3.45-2.174-1.462.168-1.432.168-1.432 2.41.164 3.676 2.43 3.676 2.43 2.14 3.606 5.618 2.564 6.99 1.962.216-1.526.834-2.564 1.52-3.154-5.33-.59-10.932-2.618-10.932-11.654 0-2.574.93-4.678 2.47-6.328-.27-.596-1.08-2.994.21-6.242 0 0 2.01-.632 6.6 2.418 1.92-.524 3.96-.784 6-.796 2.04.012 4.08.272 6 .796 4.56-3.05 6.57-2.418 6.57-2.418 1.29 3.248.48 5.646.24 6.242 1.53 1.65 2.46 3.754 2.46 6.328 0 9.06-5.61 11.054-10.95 11.634.84.708 1.62 2.154 1.62 4.364 0 3.156-.03 5.692-.03 6.458 0 .618.42 1.356 1.65 1.12C41.13 43.834 48 34.99 48 24.584 48 11.56 37.254 1 24 1z" fill="currentColor"/></svg>