<svg width="49" height="48" viewBox="0 0 49 48" fill="none" xmlns="http://www.w3.org/2000/svg">
<path d="M48.1428 0.500156C47.7275 0.00518074 47.0722 -0.127544 46.5293 0.124933L1.34222 21.1813C0.841598 21.4148 0.512538 21.9368 0.50035 22.5196C0.488163 23.1014 0.794723 23.6382 1.28597 23.8957L12.0756 29.544L14.7643 46.7145C14.8515 47.3661 15.3324 47.89 15.9587 47.9848C16.4087 48.0537 16.8558 47.885 17.1652 47.5457L25.6833 38.4785L37.8388 47.7214C38.2288 48.0168 38.7313 48.0816 39.1738 47.895C39.6172 47.7084 39.9416 47.2943 40.0353 46.7963L48.4728 1.78949C48.5562 1.34341 48.4484 0.865399 48.1428 0.500156ZM13.1893 26.7907L5.24406 22.6313L36.6332 8.00461L13.1893 26.7907ZM17.5899 31.2405L16.2821 38.2011L14.8712 29.1897L32.1182 15.3694L17.9733 30.4771C17.7746 30.6886 17.6424 30.9641 17.5899 31.2405ZM18.4458 41.9483L19.9214 34.0976L23.363 36.7142L18.4458 41.9483ZM37.7029 43.9382L21.1346 31.3413L44.8034 6.06264L37.7029 43.9382Z" fill="currentColor"/>
</svg>
