<svg width="49" height="48" viewBox="0 0 49 48" fill="none" xmlns="http://www.w3.org/2000/svg">
<g clip-path="url(#clip0)">
<path d="M44.5 6L4.50003 6C2.29391 6 0.5 7.79391 0.5 10L0.5 38.0001C0.5 40.2061 2.29391 42 4.50003 42L44.5001 42C46.7061 42 48.5 40.2061 48.5 38L48.5 10C48.5 7.79391 46.7061 6 44.5 6ZM4.50003 7.99997L44.5001 7.99997C44.6474 7.99997 44.7773 8.05369 44.9156 8.08406C41.4525 11.2535 29.9697 21.7583 25.9513 25.3789C25.6368 25.6621 25.13 26 24.5001 26C23.8702 26 23.3634 25.6621 23.0479 25.3779C19.0299 21.758 7.54634 11.2525 4.08388 8.08425C4.22244 8.05388 4.35256 7.99997 4.50003 7.99997ZM2.49997 38L2.49997 10C2.49997 9.80409 2.55903 9.62634 2.61191 9.44728C5.26241 11.8732 13.2747 19.2029 18.4699 23.9272C13.2915 28.3754 5.27722 35.9737 2.60562 38.5212C2.55847 38.3512 2.49997 38.1848 2.49997 38ZM44.5 40L4.50003 40C4.34028 40 4.19825 39.9443 4.04909 39.9087C6.80975 37.277 14.8751 29.635 19.9624 25.2829C20.6256 25.8845 21.2314 26.433 21.709 26.8633C22.5332 27.6075 23.498 28 24.5 28C25.502 28 26.4668 27.6074 27.29 26.8643C27.7678 26.4338 28.374 25.8847 29.0376 25.2829C34.1252 29.6346 42.1894 37.2759 44.9509 39.9087C44.8018 39.9443 44.6599 40 44.5 40ZM46.5 38C46.5 38.1847 46.4415 38.3512 46.3945 38.5212C43.7218 35.9723 35.7085 28.3749 30.5302 23.9273C35.7256 19.203 43.7367 11.8739 46.3881 9.44709C46.441 9.62616 46.5 9.804 46.5 9.99994L46.5 38Z" fill="currentColor"/>
</svg>
